<svg width="136.16" height="27" xmlns="http://www.w3.org/2000/svg">

 <g>
  <title>background</title>
  <rect fill="none" id="canvas_background" height="602" width="802" y="-1" x="-1"/>
 </g>
 <g>
  <title>Layer 1</title>
  <g id="svg_2" fill="none" stroke-width="2" stroke="#000">
   <rect id="svg_3" rx="4" height="27" width="24"/>
   <rect id="svg_4" rx="3" height="25" width="22" y="1" x="1"/>
  </g>
  <path id="svg_5" d="m11.36,22.24l0,-1.72a5.842,5.842 0 0 1 -2.56,-0.74a7.082,7.082 0 0 1 -1.8,-1.52l1.46,-1.32a5.618,5.618 0 0 0 1.35,1.22a4.074,4.074 0 0 0 1.69,0.58l0,-4.48a6.364,6.364 0 0 1 -3.12,-1.39a3.256,3.256 0 0 1 -0.96,-2.45a3.224,3.224 0 0 1 1.06,-2.54a5.055,5.055 0 0 1 2.88,-1.14l0,-1.74l1.7,0l0,1.74a5.708,5.708 0 0 1 2.23,0.64a5.308,5.308 0 0 1 1.65,1.42l-1.48,1.22a4.04,4.04 0 0 0 -1.05,-0.97a3.847,3.847 0 0 0 -1.47,-0.53l0,4.1l0.08,0.02a12.419,12.419 0 0 1 1.88,0.62a4.549,4.549 0 0 1 1.27,0.79a2.663,2.663 0 0 1 0.71,1.04a3.911,3.911 0 0 1 0.22,1.37a3.719,3.719 0 0 1 -1.05,2.7a4.853,4.853 0 0 1 -2.99,1.32l0,1.76l-1.7,0zm3.64,-5.64a1.8,1.8 0 0 0 -0.44,-1.25a3.26,3.26 0 0 0 -1.62,-0.79l0,4.16a2.63,2.63 0 0 0 1.52,-0.72a1.937,1.937 0 0 0 0.54,-1.4zm-5.5,-6.28a1.6,1.6 0 0 0 0.49,1.27a3.84,3.84 0 0 0 1.51,0.71l0,-3.8a2.8,2.8 0 0 0 -1.48,0.6a1.549,1.549 0 0 0 -0.52,1.22z"/>
  <text font-style="normal" font-weight="bold" xml:space="preserve" text-anchor="start" font-family="'Trebuchet MS', Gadget, sans-serif" font-size="24" id="svg_6" y="22" x="31.10124" stroke-opacity="null" stroke-width="0" stroke="null" fill="#000000">EasyJob</text>
 </g>
</svg>