<svg id="Layer_1" data-name="Layer 1" xmlns="http://www.w3.org/2000/svg" viewBox="0 0 100 100"><defs><style>.cls-1,.cls-3{fill:none;stroke:#4550e5;stroke-linejoin:round;}.cls-1{stroke-linecap:round;}.cls-2{fill:#4550e5;}</style></defs><title>phone-new-message</title><path class="cls-1" d="M59.56,77a2.91,2.91,0,0,1-3.93,1.15L43,71.14a2.9,2.9,0,0,1-1.15-3.93L57.47,38.64a2.9,2.9,0,0,1,3.94-1.14l12.67,7a2.89,2.89,0,0,1,1.15,3.93Z"/><rect class="cls-1" x="45.12" y="47.65" width="26.79" height="20.25" transform="translate(-20.28 81.3) rotate(-61.26)"/><line class="cls-1" x1="68.9" y1="44.91" x2="69.53" y2="45.26"/><line class="cls-1" x1="62.94" y1="41.67" x2="67.02" y2="43.97"/><path class="cls-1" d="M50.29,37.59v8.27a2,2,0,0,1-2,2h-7v2.2a1.13,1.13,0,0,1-.71,1,1.16,1.16,0,0,1-1.26-.24l-3-3h-10a2,2,0,0,1-2-2V30.44a2,2,0,0,1,2-2H37.06"/><circle class="cls-1" cx="46.84" cy="28.45" r="6.9"/><line class="cls-1" x1="46.84" y1="24.42" x2="46.84" y2="27.87"/><path class="cls-2" d="M46.84,31.46a.15.15,0,0,1,0,.3.15.15,0,1,1,0-.3m0-1a1.15,1.15,0,0,0,0,2.3,1.15,1.15,0,0,0,0-2.3Z"/><line class="cls-1" x1="29.01" y1="35.35" x2="39.94" y2="35.35"/><line class="cls-1" x1="29.01" y1="38.8" x2="43.96" y2="38.8"/><line class="cls-1" x1="29.01" y1="42.25" x2="43.96" y2="42.25"/><circle class="cls-3" cx="50.69" cy="72.09" r="0.58"/></svg>